<svg id="visual" viewBox="0 0 900 600" width="900" height="600" xmlns="http://www.w3.org/2000/svg" xmlns:xlink="http://www.w3.org/1999/xlink" version="1.1"><rect x="0" y="0" width="900" height="600" fill="#ffffff"></rect><path d="M0 413L21.5 410.2C43 407.3 86 401.7 128.8 396.3C171.7 391 214.3 386 257.2 384.2C300 382.3 343 383.7 385.8 389.3C428.7 395 471.3 405 514.2 407.8C557 410.7 600 406.3 642.8 400.5C685.7 394.7 728.3 387.3 771.2 388.7C814 390 857 400 878.5 405L900 410L900 601L878.5 601C857 601 814 601 771.2 601C728.3 601 685.7 601 642.8 601C600 601 557 601 514.2 601C471.3 601 428.7 601 385.8 601C343 601 300 601 257.2 601C214.3 601 171.7 601 128.8 601C86 601 43 601 21.5 601L0 601Z" fill="#ffffff"></path><path d="M0 431L21.5 429.7C43 428.3 86 425.7 128.8 429.5C171.7 433.3 214.3 443.7 257.2 444.7C300 445.7 343 437.3 385.8 434C428.7 430.7 471.3 432.3 514.2 436.5C557 440.7 600 447.3 642.8 449.5C685.7 451.7 728.3 449.3 771.2 444.7C814 440 857 433 878.5 429.5L900 426L900 601L878.5 601C857 601 814 601 771.2 601C728.3 601 685.7 601 642.8 601C600 601 557 601 514.2 601C471.3 601 428.7 601 385.8 601C343 601 300 601 257.2 601C214.3 601 171.7 601 128.8 601C86 601 43 601 21.5 601L0 601Z" fill="#bec1cc"></path><path d="M0 481L21.5 478.7C43 476.3 86 471.7 128.8 470.7C171.7 469.7 214.3 472.3 257.2 473.3C300 474.3 343 473.7 385.8 474.5C428.7 475.3 471.3 477.7 514.2 477.8C557 478 600 476 642.8 477C685.7 478 728.3 482 771.2 483.2C814 484.3 857 482.7 878.5 481.8L900 481L900 601L878.5 601C857 601 814 601 771.2 601C728.3 601 685.7 601 642.8 601C600 601 557 601 514.2 601C471.3 601 428.7 601 385.8 601C343 601 300 601 257.2 601C214.3 601 171.7 601 128.8 601C86 601 43 601 21.5 601L0 601Z" fill="#81869b"></path><path d="M0 499L21.5 499C43 499 86 499 128.8 502.3C171.7 505.7 214.3 512.3 257.2 513.2C300 514 343 509 385.8 509.7C428.7 510.3 471.3 516.7 514.2 518.2C557 519.7 600 516.3 642.8 512.7C685.7 509 728.3 505 771.2 503.8C814 502.7 857 504.3 878.5 505.2L900 506L900 601L878.5 601C857 601 814 601 771.2 601C728.3 601 685.7 601 642.8 601C600 601 557 601 514.2 601C471.3 601 428.7 601 385.8 601C343 601 300 601 257.2 601C214.3 601 171.7 601 128.8 601C86 601 43 601 21.5 601L0 601Z" fill="#47506d"></path><path d="M0 544L21.5 544.7C43 545.3 86 546.7 128.8 547.3C171.7 548 214.3 548 257.2 547.5C300 547 343 546 385.8 545.3C428.7 544.7 471.3 544.3 514.2 543.8C557 543.3 600 542.7 642.8 544.3C685.7 546 728.3 550 771.2 549.8C814 549.7 857 545.3 878.5 543.2L900 541L900 601L878.5 601C857 601 814 601 771.2 601C728.3 601 685.7 601 642.8 601C600 601 557 601 514.2 601C471.3 601 428.7 601 385.8 601C343 601 300 601 257.2 601C214.3 601 171.7 601 128.8 601C86 601 43 601 21.5 601L0 601Z" fill="#0a2041"></path></svg>